<?xml version="1.0" standalone="no"?>
<!DOCTYPE svg PUBLIC "-//W3C//DTD SVG 20010904//EN"
 "http://www.w3.org/TR/2001/REC-SVG-20010904/DTD/svg10.dtd">
<svg version="1.0" xmlns="http://www.w3.org/2000/svg"
 width="600.000000pt" height="208.000000pt" viewBox="0 0 600.000000 208.000000"
 preserveAspectRatio="xMidYMid meet">
<g transform="translate(0.000000,208.000000) scale(0.100000,-0.100000)"
fill="#000000" stroke="none">
<path d="M3432 1960 c0 -14 2 -19 5 -12 2 6 2 18 0 25 -3 6 -5 1 -5 -13z"/>
<path d="M1641 1954 c0 -11 3 -14 6 -6 3 7 2 16 -1 19 -3 4 -6 -2 -5 -13z"/>
<path d="M1031 1634 c0 -11 3 -14 6 -6 3 7 2 16 -1 19 -3 4 -6 -2 -5 -13z"/>
<path d="M527 1493 c-4 -3 -7 -13 -7 -22 1 -13 3 -13 11 2 11 19 8 33 -4 20z"/>
<path d="M661 1404 c0 -11 3 -14 6 -6 3 7 2 16 -1 19 -3 4 -6 -2 -5 -13z"/>
<path d="M4161 1324 c0 -11 3 -14 6 -6 3 7 2 16 -1 19 -3 4 -6 -2 -5 -13z"/>
<path d="M2900 1217 c-59 -31 -82 -76 -77 -146 3 -48 9 -59 43 -91 54 -50 101
-58 160 -30 53 26 84 78 84 142 0 53 -25 94 -77 125 -48 29 -79 29 -133 0z
m129 -53 c38 -32 49 -80 27 -122 -43 -83 -139 -83 -182 0 -33 64 18 148 91
148 21 0 45 -9 64 -26z"/>
<path d="M2977 1149 c7 -7 15 -10 18 -7 3 3 -2 9 -12 12 -14 6 -15 5 -6 -5z"/>
<path d="M2575 1192 c3 -3 19 -6 35 -7 16 -1 27 1 24 4 -3 3 -19 6 -35 7 -16
1 -27 -1 -24 -4z"/>
<path d="M5644 1188 c10 -6 22 -6 26 -2 5 5 -3 10 -18 11 -22 1 -24 0 -8 -9z"/>
<path d="M313 1175 c0 -8 4 -12 9 -9 5 3 6 10 3 15 -9 13 -12 11 -12 -6z"/>
<path d="M3348 1183 c7 -3 16 -2 19 1 4 3 -2 6 -13 5 -11 0 -14 -3 -6 -6z"/>
<path d="M2700 1171 c0 -6 4 -13 10 -16 6 -3 7 1 4 9 -7 18 -14 21 -14 7z"/>
<path d="M310 1132 c-27 -22 -29 -65 -5 -92 24 -26 71 -26 87 0 13 20 24 20
1025 20 692 0 1014 3 1018 10 4 6 1 17 -5 25 -11 13 -150 15 -1016 15 -991 0
-1004 0 -1024 20 -25 25 -51 25 -80 2z m78 -38 c15 -15 22 -24 16 -21 -6 4
-19 -2 -28 -12 -11 -12 -25 -17 -37 -14 -16 5 -18 8 -7 14 10 7 9 9 -4 9 -10
0 -18 5 -18 10 0 6 5 10 11 10 5 0 8 4 4 9 -3 5 3 12 12 14 10 3 19 5 21 6 2
0 15 -11 30 -25z"/>
<path d="M2583 1139 c-61 -23 -44 -119 21 -119 48 0 75 71 39 102 -28 24 -37
26 -60 17z m42 -54 c0 -25 -4 -30 -25 -30 -28 0 -39 27 -19 51 20 24 44 13 44
-21z"/>
<path d="M3285 1125 c-30 -29 -32 -58 -5 -85 24 -24 48 -25 78 -4 31 22 29 67
-4 93 -34 27 -40 26 -69 -4z m63 -42 c-3 -32 -44 -46 -54 -19 -10 26 4 46 31
46 23 0 26 -4 23 -27z"/>
<path d="M5600 1130 c-20 -20 -33 -20 -1059 -20 -897 0 -1040 -2 -1051 -15 -6
-8 -9 -19 -5 -25 4 -7 337 -10 1053 -10 1036 0 1047 0 1060 -20 16 -25 63 -26
85 -2 35 38 6 112 -43 112 -11 0 -29 -9 -40 -20z m73 -39 c3 -12 -2 -26 -12
-35 -16 -14 -20 -14 -48 7 -28 21 -30 24 -15 34 28 19 69 16 75 -6z"/>
<path d="M3410 1125 c0 -2 6 -8 13 -14 10 -8 14 -7 14 2 0 8 -6 14 -14 14 -7
0 -13 -1 -13 -2z"/>
<path d="M3207 1106 c-4 -10 -1 -13 8 -9 8 3 12 9 9 14 -7 12 -11 11 -17 -5z"/>
<path d="M3205 1069 c-11 -16 -1 -19 13 -3 7 8 8 14 3 14 -5 0 -13 -5 -16 -11z"/>
<path d="M1032 845 c0 -16 2 -22 5 -12 2 9 2 23 0 30 -3 6 -5 -1 -5 -18z"/>
<path d="M3528 803 c7 -3 16 -2 19 1 4 3 -2 6 -13 5 -11 0 -14 -3 -6 -6z"/>
<path d="M5660 240 c-9 -6 -10 -10 -3 -10 6 0 15 5 18 10 8 12 4 12 -15 0z"/>
<path d="M2925 80 c-3 -6 1 -7 9 -4 18 7 21 14 7 14 -6 0 -13 -4 -16 -10z"/>
<path d="M4875 69 c-4 -6 -5 -12 -2 -15 2 -3 7 2 10 11 7 17 1 20 -8 4z"/>
</g>
</svg>
