<?xml version="1.0" standalone="no"?>
<!DOCTYPE svg PUBLIC "-//W3C//DTD SVG 20010904//EN"
 "http://www.w3.org/TR/2001/REC-SVG-20010904/DTD/svg10.dtd">
<svg version="1.0" xmlns="http://www.w3.org/2000/svg"
 width="556.000000pt" height="50.000000pt" viewBox="0 0 556.000000 50.000000"
 preserveAspectRatio="xMidYMid meet">
<g transform="translate(0.000000,50.000000) scale(0.100000,-0.100000)"
fill="#000000" stroke="none">
<path d="M11 404 c0 -11 3 -14 6 -6 3 7 2 16 -1 19 -3 4 -6 -2 -5 -13z"/>
<path d="M2843 408 c1 -7 -4 -12 -11 -10 -8 1 -11 -2 -7 -8 5 -8 11 -8 21 1 7
6 11 15 8 20 -8 13 -14 11 -11 -3z"/>
<path d="M2655 380 c-61 -31 -80 -64 -80 -138 0 -61 1 -65 41 -101 54 -51 100
-59 160 -31 53 26 84 78 84 142 0 53 -25 94 -77 125 -47 28 -76 29 -128 3z
m124 -56 c78 -66 23 -197 -76 -181 -56 9 -88 47 -88 103 0 39 5 50 33 75 42
38 89 39 131 3z"/>
<path d="M2753 295 c0 -7 6 -11 14 -8 7 3 13 6 13 8 0 2 -6 5 -13 8 -8 3 -14
-1 -14 -8z"/>
<path d="M2710 296 c0 -2 8 -10 18 -17 15 -13 16 -12 3 4 -13 16 -21 21 -21
13z"/>
<path d="M2840 367 c0 -2 6 -10 14 -16 11 -9 16 -9 22 1 4 7 4 10 -1 6 -4 -4
-14 -3 -22 3 -7 6 -13 9 -13 6z"/>
<path d="M63 348 c2 -7 -3 -22 -12 -33 -16 -20 -16 -20 6 -2 12 11 19 25 16
33 -6 17 -16 19 -10 2z"/>
<path d="M2976 323 c-6 -14 -5 -15 5 -6 7 7 10 15 7 18 -3 3 -9 -2 -12 -12z"/>
<path d="M2999 303 c-13 -16 -12 -17 4 -4 16 13 21 21 13 21 -2 0 -10 -8 -17
-17z"/>
<path d="M60 292 c-27 -22 -29 -65 -5 -92 24 -26 71 -26 87 0 13 20 24 20
1025 20 692 0 1014 3 1018 10 4 6 1 17 -5 26 -11 12 -147 14 -1016 14 -994 0
-1004 0 -1024 20 -25 25 -51 25 -80 2z m85 -45 l20 -18 -20 7 c-11 4 -17 4
-13 -1 12 -12 -22 -32 -46 -28 -12 3 -22 13 -23 23 -1 13 3 17 13 13 7 -3 12
-8 9 -12 -2 -4 3 -8 11 -8 10 0 11 4 5 10 -7 7 -7 16 2 26 10 14 10 14 -5 3
-11 -9 -18 -10 -23 -2 -3 5 1 10 9 10 9 0 16 5 16 12 0 8 4 7 13 -3 6 -8 21
-22 32 -32z"/>
<path d="M2333 299 c-44 -16 -52 -68 -17 -104 34 -34 94 -5 94 46 0 44 -39 73
-77 58z m48 -41 c6 -11 4 -21 -5 -31 -8 -8 -13 -17 -11 -19 3 -3 -2 -5 -10 -5
-8 0 -12 4 -9 9 3 4 -1 8 -8 8 -9 0 -13 10 -12 28 2 32 -1 29 25 27 12 -1 25
-9 30 -17z"/>
<path d="M3036 289 c-31 -25 -34 -61 -6 -89 24 -24 48 -25 78 -4 31 22 29 67
-4 93 -15 12 -30 21 -34 21 -4 0 -19 -9 -34 -21z m64 -24 c10 -12 10 -15 0
-15 -9 0 -10 -3 -1 -14 9 -11 8 -15 -5 -20 -26 -10 -36 -7 -30 9 3 8 1 15 -4
15 -6 0 -10 -5 -10 -12 0 -6 -3 -9 -6 -5 -12 11 8 49 22 43 9 -3 12 -1 9 4
-10 16 11 12 25 -5z"/>
<path d="M5350 290 c-20 -20 -30 -20 -1057 -20 -728 0 -1040 -3 -1049 -11 -7
-6 -10 -17 -7 -25 4 -12 154 -14 1052 -14 1035 0 1046 0 1059 -20 16 -25 63
-26 85 -2 23 25 21 68 -3 92 -26 26 -55 25 -80 0z m63 -22 c-2 -5 2 -8 9 -8 7
0 0 -9 -17 -20 -16 -11 -25 -20 -18 -20 6 0 15 5 18 10 3 6 11 10 17 10 7 0 6
-6 -2 -15 -17 -20 -33 -19 -61 4 -22 18 -22 20 -7 26 10 4 16 10 14 14 -2 3 9
6 24 6 15 0 26 -3 23 -7z"/>
<path d="M2253 275 c0 -8 4 -12 9 -9 5 3 6 10 3 15 -9 13 -12 11 -12 -6z"/>
<path d="M2957 266 c-4 -10 -1 -13 8 -9 8 3 12 9 9 14 -7 12 -11 11 -17 -5z"/>
<path d="M5497 258 c-3 -12 -3 -28 1 -35 5 -8 8 0 9 22 1 40 -2 44 -10 13z"/>
<path d="M2240 236 c0 -2 8 -10 18 -17 15 -13 16 -12 3 4 -13 16 -21 21 -21
13z"/>
<path d="M2450 210 c0 -5 5 -10 11 -10 5 0 7 5 4 10 -3 6 -8 10 -11 10 -2 0
-4 -4 -4 -10z"/>
<path d="M3170 209 c0 -5 5 -7 10 -4 6 3 10 8 10 11 0 2 -4 4 -10 4 -5 0 -10
-5 -10 -11z"/>
<path d="M3205 199 c-4 -6 -5 -12 -2 -15 2 -3 7 2 10 11 7 17 1 20 -8 4z"/>
</g>
</svg>
